<mxfile host="www.draw.io" modified="2020-10-30T10:29:27.211Z" agent="5.0 (Macintosh; Intel Mac OS X 10_15_0) AppleWebKit/537.36 (KHTML, like Gecko) Chrome/86.0.4240.111 Safari/537.36" etag="c4q5eMqu5NuaSvtEO5eF" version="13.7.3" type="github">
  <diagram id="iloBVElaY7iQLS_CqcDA" name="第 1 页">
    <mxGraphModel dx="932" dy="523" grid="1" gridSize="10" guides="1" tooltips="1" connect="1" arrows="1" fold="1" page="1" pageScale="1" pageWidth="850" pageHeight="1100" math="0" shadow="0">
      <root>
        <mxCell id="0" />
        <mxCell id="1" parent="0" />
        <mxCell id="ugmz32tfJayoeNNLECNe-1" value="赶海&lt;br&gt;oil hunter" style="rounded=1;whiteSpace=wrap;html=1;" vertex="1" parent="1">
          <mxGeometry x="210" y="130" width="70" height="680" as="geometry" />
        </mxCell>
        <mxCell id="ugmz32tfJayoeNNLECNe-2" value="" style="endArrow=classic;html=1;exitX=1.029;exitY=0.049;exitDx=0;exitDy=0;exitPerimeter=0;" edge="1" parent="1" source="ugmz32tfJayoeNNLECNe-1">
          <mxGeometry width="50" height="50" relative="1" as="geometry">
            <mxPoint x="300" y="190" as="sourcePoint" />
            <mxPoint x="440" y="160" as="targetPoint" />
          </mxGeometry>
        </mxCell>
        <mxCell id="ugmz32tfJayoeNNLECNe-3" value="获取各种海洋生物" style="rounded=1;whiteSpace=wrap;html=1;" vertex="1" parent="1">
          <mxGeometry x="440" y="130" width="120" height="60" as="geometry" />
        </mxCell>
        <mxCell id="ugmz32tfJayoeNNLECNe-4" value="合成新物种" style="rounded=1;whiteSpace=wrap;html=1;" vertex="1" parent="1">
          <mxGeometry x="350" y="230" width="120" height="60" as="geometry" />
        </mxCell>
        <mxCell id="ugmz32tfJayoeNNLECNe-5" value="升级高级物种" style="rounded=1;whiteSpace=wrap;html=1;" vertex="1" parent="1">
          <mxGeometry x="500" y="230" width="120" height="60" as="geometry" />
        </mxCell>
        <mxCell id="ugmz32tfJayoeNNLECNe-6" value="" style="endArrow=classic;html=1;exitX=0.5;exitY=1;exitDx=0;exitDy=0;entryX=0.5;entryY=0;entryDx=0;entryDy=0;" edge="1" parent="1" source="ugmz32tfJayoeNNLECNe-3" target="ugmz32tfJayoeNNLECNe-4">
          <mxGeometry width="50" height="50" relative="1" as="geometry">
            <mxPoint x="560" y="190" as="sourcePoint" />
            <mxPoint x="610" y="140" as="targetPoint" />
          </mxGeometry>
        </mxCell>
        <mxCell id="ugmz32tfJayoeNNLECNe-7" value="" style="endArrow=classic;html=1;entryX=0.5;entryY=0;entryDx=0;entryDy=0;exitX=0.5;exitY=1;exitDx=0;exitDy=0;" edge="1" parent="1" source="ugmz32tfJayoeNNLECNe-3" target="ugmz32tfJayoeNNLECNe-5">
          <mxGeometry width="50" height="50" relative="1" as="geometry">
            <mxPoint x="560" y="160" as="sourcePoint" />
            <mxPoint x="630" y="250" as="targetPoint" />
          </mxGeometry>
        </mxCell>
        <mxCell id="ugmz32tfJayoeNNLECNe-8" value="升级海洋水族馆" style="rounded=1;whiteSpace=wrap;html=1;" vertex="1" parent="1">
          <mxGeometry x="430" y="330" width="120" height="60" as="geometry" />
        </mxCell>
        <mxCell id="ugmz32tfJayoeNNLECNe-9" value="开放更多区域" style="rounded=1;whiteSpace=wrap;html=1;" vertex="1" parent="1">
          <mxGeometry x="330" y="430" width="120" height="60" as="geometry" />
        </mxCell>
        <mxCell id="ugmz32tfJayoeNNLECNe-10" value="接待更多游客" style="rounded=1;whiteSpace=wrap;html=1;" vertex="1" parent="1">
          <mxGeometry x="520" y="430" width="120" height="60" as="geometry" />
        </mxCell>
        <mxCell id="ugmz32tfJayoeNNLECNe-11" value="单位收入提高" style="rounded=1;whiteSpace=wrap;html=1;" vertex="1" parent="1">
          <mxGeometry x="425" y="540" width="120" height="60" as="geometry" />
        </mxCell>
        <mxCell id="ugmz32tfJayoeNNLECNe-12" value="获取金币" style="rounded=1;whiteSpace=wrap;html=1;" vertex="1" parent="1">
          <mxGeometry x="425" y="640" width="120" height="60" as="geometry" />
        </mxCell>
        <mxCell id="ugmz32tfJayoeNNLECNe-13" value="购买更多工具" style="rounded=1;whiteSpace=wrap;html=1;" vertex="1" parent="1">
          <mxGeometry x="330" y="750" width="120" height="60" as="geometry" />
        </mxCell>
        <mxCell id="ugmz32tfJayoeNNLECNe-14" value="升级工具" style="rounded=1;whiteSpace=wrap;html=1;" vertex="1" parent="1">
          <mxGeometry x="480" y="750" width="120" height="60" as="geometry" />
        </mxCell>
        <mxCell id="ugmz32tfJayoeNNLECNe-15" value="" style="endArrow=classic;html=1;exitX=0.5;exitY=1;exitDx=0;exitDy=0;entryX=0.5;entryY=0;entryDx=0;entryDy=0;" edge="1" parent="1" source="ugmz32tfJayoeNNLECNe-4" target="ugmz32tfJayoeNNLECNe-8">
          <mxGeometry width="50" height="50" relative="1" as="geometry">
            <mxPoint x="270" y="410" as="sourcePoint" />
            <mxPoint x="320" y="360" as="targetPoint" />
          </mxGeometry>
        </mxCell>
        <mxCell id="ugmz32tfJayoeNNLECNe-16" value="" style="endArrow=classic;html=1;exitX=0.5;exitY=1;exitDx=0;exitDy=0;entryX=0.5;entryY=0;entryDx=0;entryDy=0;" edge="1" parent="1" source="ugmz32tfJayoeNNLECNe-5" target="ugmz32tfJayoeNNLECNe-8">
          <mxGeometry width="50" height="50" relative="1" as="geometry">
            <mxPoint x="530" y="340" as="sourcePoint" />
            <mxPoint x="580" y="290" as="targetPoint" />
          </mxGeometry>
        </mxCell>
        <mxCell id="ugmz32tfJayoeNNLECNe-17" value="" style="endArrow=classic;html=1;exitX=0.5;exitY=1;exitDx=0;exitDy=0;entryX=0.45;entryY=-0.017;entryDx=0;entryDy=0;entryPerimeter=0;" edge="1" parent="1" source="ugmz32tfJayoeNNLECNe-8" target="ugmz32tfJayoeNNLECNe-9">
          <mxGeometry width="50" height="50" relative="1" as="geometry">
            <mxPoint x="210" y="440" as="sourcePoint" />
            <mxPoint x="260" y="390" as="targetPoint" />
          </mxGeometry>
        </mxCell>
        <mxCell id="ugmz32tfJayoeNNLECNe-18" value="" style="endArrow=classic;html=1;exitX=0.5;exitY=1;exitDx=0;exitDy=0;entryX=0.558;entryY=0;entryDx=0;entryDy=0;entryPerimeter=0;" edge="1" parent="1" source="ugmz32tfJayoeNNLECNe-8" target="ugmz32tfJayoeNNLECNe-10">
          <mxGeometry width="50" height="50" relative="1" as="geometry">
            <mxPoint x="210" y="500" as="sourcePoint" />
            <mxPoint x="260" y="450" as="targetPoint" />
          </mxGeometry>
        </mxCell>
        <mxCell id="ugmz32tfJayoeNNLECNe-19" value="" style="endArrow=classic;html=1;exitX=0.5;exitY=1;exitDx=0;exitDy=0;entryX=0.5;entryY=0;entryDx=0;entryDy=0;" edge="1" parent="1" source="ugmz32tfJayoeNNLECNe-9" target="ugmz32tfJayoeNNLECNe-11">
          <mxGeometry width="50" height="50" relative="1" as="geometry">
            <mxPoint x="270" y="580" as="sourcePoint" />
            <mxPoint x="320" y="530" as="targetPoint" />
          </mxGeometry>
        </mxCell>
        <mxCell id="ugmz32tfJayoeNNLECNe-20" value="" style="endArrow=classic;html=1;exitX=0.5;exitY=1;exitDx=0;exitDy=0;entryX=0.5;entryY=0;entryDx=0;entryDy=0;" edge="1" parent="1" source="ugmz32tfJayoeNNLECNe-10" target="ugmz32tfJayoeNNLECNe-11">
          <mxGeometry width="50" height="50" relative="1" as="geometry">
            <mxPoint x="300" y="540" as="sourcePoint" />
            <mxPoint x="290" y="510" as="targetPoint" />
          </mxGeometry>
        </mxCell>
        <mxCell id="ugmz32tfJayoeNNLECNe-21" value="" style="endArrow=classic;html=1;exitX=0.5;exitY=1;exitDx=0;exitDy=0;" edge="1" parent="1" source="ugmz32tfJayoeNNLECNe-11" target="ugmz32tfJayoeNNLECNe-12">
          <mxGeometry width="50" height="50" relative="1" as="geometry">
            <mxPoint x="260" y="680" as="sourcePoint" />
            <mxPoint x="310" y="630" as="targetPoint" />
          </mxGeometry>
        </mxCell>
        <mxCell id="ugmz32tfJayoeNNLECNe-22" value="" style="endArrow=classic;html=1;exitX=0.5;exitY=1;exitDx=0;exitDy=0;entryX=0.5;entryY=0;entryDx=0;entryDy=0;" edge="1" parent="1" source="ugmz32tfJayoeNNLECNe-12" target="ugmz32tfJayoeNNLECNe-13">
          <mxGeometry width="50" height="50" relative="1" as="geometry">
            <mxPoint x="220" y="750" as="sourcePoint" />
            <mxPoint x="270" y="700" as="targetPoint" />
          </mxGeometry>
        </mxCell>
        <mxCell id="ugmz32tfJayoeNNLECNe-23" value="" style="endArrow=classic;html=1;exitX=0.5;exitY=1;exitDx=0;exitDy=0;entryX=0.5;entryY=0;entryDx=0;entryDy=0;" edge="1" parent="1" source="ugmz32tfJayoeNNLECNe-12" target="ugmz32tfJayoeNNLECNe-14">
          <mxGeometry width="50" height="50" relative="1" as="geometry">
            <mxPoint x="230" y="810" as="sourcePoint" />
            <mxPoint x="280" y="760" as="targetPoint" />
          </mxGeometry>
        </mxCell>
        <mxCell id="ugmz32tfJayoeNNLECNe-24" value="解锁更多赶海区域" style="rounded=1;whiteSpace=wrap;html=1;" vertex="1" parent="1">
          <mxGeometry x="640" y="750" width="120" height="60" as="geometry" />
        </mxCell>
        <mxCell id="ugmz32tfJayoeNNLECNe-25" value="" style="endArrow=classic;html=1;entryX=0.5;entryY=0;entryDx=0;entryDy=0;" edge="1" parent="1" target="ugmz32tfJayoeNNLECNe-24">
          <mxGeometry width="50" height="50" relative="1" as="geometry">
            <mxPoint x="490" y="700" as="sourcePoint" />
            <mxPoint x="270" y="810" as="targetPoint" />
          </mxGeometry>
        </mxCell>
        <mxCell id="ugmz32tfJayoeNNLECNe-26" value="" style="endArrow=classic;html=1;exitX=0.5;exitY=1;exitDx=0;exitDy=0;" edge="1" parent="1" source="ugmz32tfJayoeNNLECNe-13" target="ugmz32tfJayoeNNLECNe-1">
          <mxGeometry width="50" height="50" relative="1" as="geometry">
            <mxPoint x="310" y="930" as="sourcePoint" />
            <mxPoint x="270" y="340" as="targetPoint" />
            <Array as="points">
              <mxPoint x="390" y="870" />
              <mxPoint x="250" y="870" />
              <mxPoint x="250" y="840" />
            </Array>
          </mxGeometry>
        </mxCell>
        <mxCell id="ugmz32tfJayoeNNLECNe-27" value="" style="endArrow=classic;html=1;exitX=0.45;exitY=1.033;exitDx=0;exitDy=0;exitPerimeter=0;" edge="1" parent="1" source="ugmz32tfJayoeNNLECNe-14">
          <mxGeometry width="50" height="50" relative="1" as="geometry">
            <mxPoint x="495" y="900" as="sourcePoint" />
            <mxPoint x="390" y="870" as="targetPoint" />
            <Array as="points">
              <mxPoint x="534" y="870" />
            </Array>
          </mxGeometry>
        </mxCell>
        <mxCell id="ugmz32tfJayoeNNLECNe-28" value="" style="endArrow=classic;html=1;exitX=0.5;exitY=1;exitDx=0;exitDy=0;" edge="1" parent="1" source="ugmz32tfJayoeNNLECNe-24">
          <mxGeometry width="50" height="50" relative="1" as="geometry">
            <mxPoint x="670" y="900" as="sourcePoint" />
            <mxPoint x="530" y="870" as="targetPoint" />
            <Array as="points">
              <mxPoint x="700" y="870" />
            </Array>
          </mxGeometry>
        </mxCell>
        <mxCell id="ugmz32tfJayoeNNLECNe-29" value="体力值 = N （支持N次的免费hunter)" style="rounded=1;whiteSpace=wrap;html=1;" vertex="1" parent="1">
          <mxGeometry x="40" y="440" width="120" height="60" as="geometry" />
        </mxCell>
        <mxCell id="ugmz32tfJayoeNNLECNe-32" value="" style="endArrow=none;dashed=1;html=1;dashPattern=1 3;strokeWidth=2;exitX=1;exitY=0.5;exitDx=0;exitDy=0;entryX=0;entryY=0.5;entryDx=0;entryDy=0;" edge="1" parent="1" source="ugmz32tfJayoeNNLECNe-29" target="ugmz32tfJayoeNNLECNe-1">
          <mxGeometry width="50" height="50" relative="1" as="geometry">
            <mxPoint x="90" y="580" as="sourcePoint" />
            <mxPoint x="140" y="530" as="targetPoint" />
          </mxGeometry>
        </mxCell>
      </root>
    </mxGraphModel>
  </diagram>
</mxfile>
